<?xml version="1.0" standalone="no"?>
<!DOCTYPE svg PUBLIC "-//W3C//DTD SVG 20010904//EN"
 "http://www.w3.org/TR/2001/REC-SVG-20010904/DTD/svg10.dtd">
<svg version="1.0" xmlns="http://www.w3.org/2000/svg"
 width="600.000000pt" height="574.000000pt" viewBox="0 0 600.000000 574.000000"
 preserveAspectRatio="xMidYMid meet">

<g transform="translate(0.000000,574.000000) scale(0.100000,-0.100000)"
fill="#000000" stroke="none">
<path d="M2751 5098 c-5 -13 -20 -52 -35 -87 -14 -35 -24 -66 -22 -68 2 -2 16
26 30 63 50 125 68 121 156 -34 56 -98 73 -118 166 -201 57 -50 104 -88 104
-84 0 5 -45 46 -99 93 -90 77 -104 95 -162 197 -40 69 -74 117 -89 125 -14 7
-28 14 -32 16 -5 2 -12 -7 -17 -20z"/>
<path d="M2772 5045 c0 -16 2 -22 5 -12 2 9 2 23 0 30 -3 6 -5 -1 -5 -18z"/>
<path d="M2782 4985 c0 -16 2 -22 5 -12 2 9 2 23 0 30 -3 6 -5 -1 -5 -18z"/>
<path d="M2792 4925 c0 -16 2 -22 5 -12 2 9 2 23 0 30 -3 6 -5 -1 -5 -18z"/>
<path d="M2648 4933 c6 -2 18 -2 25 0 6 3 1 5 -13 5 -14 0 -19 -2 -12 -5z"/>
<path d="M2578 4918 c-35 -28 -141 -243 -162 -328 -5 -21 -5 -22 3 -5 6 11 22
52 37 90 15 39 48 107 73 153 37 66 52 84 76 91 22 7 24 9 9 10 -11 1 -27 -5
-36 -11z"/>
<path d="M2802 4860 c0 -19 2 -27 5 -17 2 9 2 25 0 35 -3 9 -5 1 -5 -18z"/>
<path d="M2812 4800 c0 -14 2 -19 5 -12 2 6 2 18 0 25 -3 6 -5 1 -5 -13z"/>
<path d="M2822 4740 c0 -14 2 -19 5 -12 2 6 2 18 0 25 -3 6 -5 1 -5 -13z"/>
<path d="M2832 4680 c0 -19 2 -27 5 -17 2 9 2 25 0 35 -3 9 -5 1 -5 -18z"/>
<path d="M3151 4654 c0 -11 3 -14 6 -6 3 7 2 16 -1 19 -3 4 -6 -2 -5 -13z"/>
<path d="M2842 4615 c0 -16 2 -22 5 -12 2 9 2 23 0 30 -3 6 -5 -1 -5 -18z"/>
<path d="M3162 4610 c0 -14 2 -19 5 -12 2 6 2 18 0 25 -3 6 -5 1 -5 -13z"/>
<path d="M3287 4623 c-2 -5 -19 -53 -38 -108 -28 -85 -34 -96 -40 -75 -5 14
-6 4 -2 -25 6 -51 13 -73 13 -39 0 16 67 232 75 242 1 1 14 -2 28 -9 20 -9 35
-36 72 -133 28 -73 67 -153 100 -203 30 -46 56 -93 56 -105 1 -17 2 -19 6 -5
2 9 12 17 21 18 13 0 12 2 -4 9 -33 13 -127 174 -174 298 -35 92 -48 116 -71
128 -32 16 -36 17 -42 7z"/>
<path d="M2852 4555 c0 -16 2 -22 5 -12 2 9 2 23 0 30 -3 6 -5 -1 -5 -18z"/>
<path d="M3171 4564 c0 -11 3 -14 6 -6 3 7 2 16 -1 19 -3 4 -6 -2 -5 -13z"/>
<path d="M3182 4530 c0 -8 4 -26 8 -40 6 -20 8 -21 8 -5 0 11 -3 29 -8 40 -5
12 -8 14 -8 5z"/>
<path d="M2361 4444 c-17 -48 -30 -89 -28 -91 2 -2 18 36 36 83 17 48 30 89
28 91 -2 2 -18 -36 -36 -83z"/>
<path d="M2862 4490 c0 -19 2 -27 5 -17 2 9 2 25 0 35 -3 9 -5 1 -5 -18z"/>
<path d="M2194 4425 c-21 -17 -35 -39 -43 -71 -7 -26 -10 -48 -8 -51 3 -2 10
18 17 46 11 45 40 81 67 81 9 0 74 -111 85 -145 6 -19 6 -19 7 2 1 12 4 30 7
40 5 14 4 15 -4 4 -8 -12 -16 -5 -39 33 -15 27 -35 57 -43 67 -15 18 -16 18
-46 -6z"/>
<path d="M2872 4430 c0 -14 2 -19 5 -12 2 6 2 18 0 25 -3 6 -5 1 -5 -13z"/>
<path d="M2882 4375 c0 -16 2 -22 5 -12 2 9 2 23 0 30 -3 6 -5 -1 -5 -18z"/>
<path d="M3202 4325 c0 -16 2 -22 5 -12 2 9 2 23 0 30 -3 6 -5 -1 -5 -18z"/>
<path d="M2888 4275 c-4 -38 -9 -81 -12 -95 -3 -14 2 0 13 31 12 39 16 69 12
95 -7 36 -8 33 -13 -31z"/>
<path d="M2132 4270 c0 -14 2 -19 5 -12 2 6 2 18 0 25 -3 6 -5 1 -5 -13z"/>
<path d="M3192 4260 c0 -19 2 -27 5 -17 2 9 2 25 0 35 -3 9 -5 1 -5 -18z"/>
<path d="M2302 4220 c0 -19 2 -27 5 -17 2 9 2 25 0 35 -3 9 -5 1 -5 -18z"/>
<path d="M2121 4224 c0 -11 3 -14 6 -6 3 7 2 16 -1 19 -3 4 -6 -2 -5 -13z"/>
<path d="M3182 4190 c0 -14 2 -19 5 -12 2 6 2 18 0 25 -3 6 -5 1 -5 -13z"/>
<path d="M2111 4184 c0 -11 3 -14 6 -6 3 7 2 16 -1 19 -3 4 -6 -2 -5 -13z"/>
<path d="M3635 4168 c22 -6 43 -16 47 -22 6 -8 8 -8 8 1 0 16 -8 20 -55 27
l-40 5 40 -11z"/>
<path d="M2292 4140 c0 -19 2 -27 5 -17 2 9 2 25 0 35 -3 9 -5 1 -5 -18z"/>
<path d="M2096 4129 c-8 -42 0 -50 9 -9 4 17 5 34 2 36 -2 3 -7 -10 -11 -27z"/>
<path d="M3172 4130 c0 -19 2 -27 5 -17 2 9 2 25 0 35 -3 9 -5 1 -5 -18z"/>
<path d="M2846 4074 c-10 -41 -16 -77 -14 -80 3 -2 12 30 22 72 10 41 16 77
14 80 -3 2 -12 -30 -22 -72z"/>
<path d="M3563 4085 c0 -27 2 -38 4 -22 2 15 2 37 0 50 -2 12 -4 0 -4 -28z"/>
<path d="M2283 4050 c0 -25 2 -35 4 -22 2 12 2 32 0 45 -2 12 -4 2 -4 -23z"/>
<path d="M3159 4065 c-3 -24 -35 -54 -184 -172 -180 -143 -217 -168 -245 -164
-13 2 -13 1 0 -8 8 -5 12 -12 10 -14 -5 -3 -220 -189 -265 -228 -20 -17 -22
-15 -115 97 -52 62 -100 129 -107 146 -7 18 -12 25 -12 16 -1 -10 -6 -18 -12
-18 -5 0 -8 -4 -5 -9 5 -7 -436 -377 -481 -404 -8 -5 -17 12 -29 53 -9 33 -19
59 -21 56 -2 -2 3 -29 12 -60 9 -31 15 -61 13 -66 -4 -11 -331 -280 -336 -275
-2 1 34 94 78 205 44 111 79 204 77 206 -3 3 -127 -303 -167 -409 -9 -26 -11
-27 -37 -14 -67 34 -65 35 -124 -73 -30 -55 -61 -101 -69 -104 -12 -3 -11 -4
2 -5 12 -1 32 27 64 87 27 48 53 92 59 99 26 25 96 -27 318 -234 122 -114 223
-210 225 -214 2 -4 -41 -45 -96 -92 l-98 -86 -58 -125 c-35 -74 -65 -126 -75
-128 -12 -3 -10 -5 7 -10 14 -4 22 -2 22 7 0 7 27 68 59 136 57 121 61 126
142 194 46 38 99 77 117 87 29 14 30 17 12 20 -11 2 -120 95 -241 208 l-221
205 39 6 38 5 -38 5 -39 4 93 75 c52 41 246 200 433 353 186 153 342 275 346
270 68 -71 199 -241 194 -253 -3 -8 -2 -11 2 -7 4 4 18 -23 30 -60 28 -85 31
-71 4 17 -16 53 -17 67 -7 75 7 6 78 67 158 136 151 132 518 423 525 416 2 -2
11 -21 19 -43 11 -28 13 -30 8 -9 -3 17 -9 53 -13 80 -5 41 -7 45 -11 20z"/>
<path d="M2081 4064 c0 -11 3 -14 6 -6 3 7 2 16 -1 19 -3 4 -6 -2 -5 -13z"/>
<path d="M3711 4064 c-1 -6 6 -31 14 -54 8 -23 15 -57 16 -74 1 -27 2 -28 7
-8 l7 22 37 -25 c27 -18 39 -35 44 -61 3 -19 8 -33 11 -30 2 2 1 19 -2 38 -5
26 -17 40 -50 61 -36 23 -47 38 -64 85 -10 31 -20 52 -20 46z"/>
<path d="M2059 3979 l-14 -62 -85 -32 -84 -32 -92 -197 c-50 -108 -94 -199
-96 -202 -3 -3 -16 11 -28 30 -12 20 -25 36 -29 36 -27 0 -70 -25 -80 -46 -17
-39 -13 -42 9 -6 11 17 24 32 29 32 5 0 16 3 25 6 10 4 25 -8 45 -36 l30 -42
25 53 c76 170 159 345 165 352 4 4 32 -1 61 -13 29 -11 54 -19 57 -17 2 3 -19
13 -46 23 -27 9 -48 21 -46 24 3 4 33 17 67 30 35 12 68 26 74 31 11 9 39 117
32 125 -3 2 -11 -24 -19 -57z"/>
<path d="M3573 3985 c0 -22 2 -30 4 -17 2 12 2 30 0 40 -3 9 -5 -1 -4 -23z"/>
<path d="M2272 3970 c0 -19 2 -27 5 -17 2 9 2 25 0 35 -3 9 -5 1 -5 -18z"/>
<path d="M2816 3954 c-4 -14 -5 -28 -3 -31 3 -2 8 8 11 23 4 14 5 28 3 31 -3
2 -8 -8 -11 -23z"/>
<path d="M3191 3920 c0 -8 4 -24 9 -35 5 -13 9 -14 9 -5 0 8 -4 24 -9 35 -5
13 -9 14 -9 5z"/>
<path d="M3583 3890 c0 -25 2 -35 4 -22 2 12 2 32 0 45 -2 12 -4 2 -4 -23z"/>
<path d="M2262 3890 c0 -19 2 -27 5 -17 2 9 2 25 0 35 -3 9 -5 1 -5 -18z"/>
<path d="M2786 3834 c-10 -41 -16 -77 -14 -80 3 -2 12 30 22 72 10 41 16 77
14 80 -3 2 -12 -30 -22 -72z"/>
<path d="M2253 3800 c0 -25 2 -35 4 -22 2 12 2 32 0 45 -2 12 -4 2 -4 -23z"/>
<path d="M3221 3814 c0 -11 3 -14 6 -6 3 7 2 16 -1 19 -3 4 -6 -2 -5 -13z"/>
<path d="M3593 3790 c0 -25 2 -35 4 -22 2 12 2 32 0 45 -2 12 -4 2 -4 -23z"/>
<path d="M3754 3710 c0 -69 1 -97 3 -62 2 34 2 90 0 125 -2 34 -3 6 -3 -63z"/>
<path d="M3852 3805 c0 -11 4 -31 8 -45 6 -20 8 -21 8 -5 0 11 -4 31 -8 45 -6
20 -8 21 -8 5z"/>
<path d="M2045 3781 c22 -10 51 -21 65 -25 14 -3 7 2 -15 13 -22 10 -51 21
-65 25 -14 3 -7 -2 15 -13z"/>
<path d="M3235 3770 c3 -14 11 -46 17 -72 l11 -48 -54 -57 c-30 -32 -118 -126
-197 -210 -175 -186 -180 -191 -180 -227 0 -15 4 -23 8 -17 3 7 57 -103 120
-243 l113 -255 -59 -69 c-326 -383 -359 -420 -366 -404 -5 12 -7 8 -8 -13 -1
-25 12 -42 81 -106 l82 -76 -211 -110 -212 -110 -206 209 -206 209 63 67 c35
37 185 192 334 344 l270 277 70 -86 c39 -47 70 -90 69 -97 -1 -6 -4 -22 -7
-36 -6 -20 -4 -20 8 5 8 17 14 41 14 55 0 14 -3 20 -6 13 -5 -14 -128 127
-149 172 -14 30 -14 30 -12 4 3 -23 -46 -78 -322 -362 -179 -184 -331 -333
-337 -331 -37 10 5 -39 178 -211 105 -105 199 -202 210 -217 l20 -27 -25 -83
c-14 -45 -24 -83 -22 -85 2 -2 17 36 32 84 l29 88 205 107 c113 59 211 108
219 108 8 0 101 -50 208 -112 184 -106 193 -112 176 -128 -10 -10 -143 -128
-296 -264 -173 -153 -283 -244 -290 -239 -7 4 -79 65 -160 137 -97 85 -146
134 -142 144 15 39 13 61 -2 24 -15 -35 -51 -71 -188 -187 l-170 -145 -6 58
-6 57 -1 -55 -2 -55 -116 210 c-112 203 -120 214 -224 320 -59 61 -110 117
-113 125 -4 11 -6 9 -6 -5 -1 -11 -104 -162 -230 -335 -126 -173 -228 -316
-227 -317 1 -1 12 0 25 4 14 4 18 8 11 13 -7 5 64 111 206 306 119 164 218
300 219 302 1 1 48 -42 105 -96 l103 -98 -214 -173 c-118 -96 -221 -181 -229
-189 -40 -40 30 14 229 176 117 95 217 170 221 165 5 -4 60 -102 124 -217 111
-199 116 -211 99 -226 -158 -146 -365 -319 -384 -323 -24 -4 -24 -4 -1 -6 13
0 73 -39 132 -86 71 -56 126 -91 157 -100 67 -20 80 -17 15 4 -34 11 -91 47
-162 101 -104 80 -109 85 -93 101 120 113 706 619 718 619 10 0 315 -271 315
-281 0 -5 15 7 33 26 17 19 151 140 297 269 211 187 266 231 272 218 5 -14 7
-12 7 6 1 13 70 142 154 289 l152 265 133 100 c72 54 138 101 145 103 6 3 106
-68 221 -158 197 -153 211 -165 228 -212 10 -27 16 -39 13 -25 -3 14 -8 40
-12 58 -3 17 -9 32 -14 32 -4 0 -99 70 -211 156 -210 161 -213 165 -194 219 4
11 -2 3 -14 -17 -13 -25 -65 -71 -153 -137 l-132 -100 -8 29 c-9 37 -21 40
-14 5 2 -14 1 -24 -4 -23 -5 2 -103 81 -218 177 l-209 174 -118 266 c-66 146
-119 269 -119 272 0 7 46 58 259 287 126 135 162 168 167 155 6 -16 7 -16 10
-2 3 12 48 -17 176 -115 153 -116 172 -134 173 -161 1 -22 3 -25 8 -12 6 13
46 -47 157 -235 83 -138 151 -256 153 -262 1 -6 -23 -69 -53 -140 -31 -71 -54
-130 -52 -132 2 -2 30 57 62 132 l58 136 -21 62 c-12 33 -19 48 -16 31 3 -18
2 -26 -4 -20 -29 32 -277 466 -283 495 -4 22 -7 27 -8 13 0 -13 -3 -23 -6 -23
-2 0 -82 60 -177 133 l-172 133 -23 70 c-12 38 -20 58 -18 44z m70 -1324 c203
-169 215 -180 202 -200 -7 -12 -71 -122 -142 -246 -70 -124 -134 -231 -141
-239 -20 -22 -384 191 -489 287 -44 40 -80 76 -80 81 0 13 419 501 427 498 4
-1 104 -83 223 -181z"/>
<path d="M2150 3742 c8 -5 26 -13 40 -16 17 -5 20 -4 10 2 -8 5 -26 13 -40 16
-17 5 -20 4 -10 -2z"/>
<path d="M3603 3695 c0 -22 2 -30 4 -17 2 12 2 30 0 40 -3 9 -5 -1 -4 -23z"/>
<path d="M3872 3715 c0 -11 4 -31 8 -45 6 -20 8 -21 8 -5 0 11 -4 31 -8 45 -6
20 -8 21 -8 5z"/>
<path d="M2408 3713 c34 -2 88 -2 120 0 31 2 3 3 -63 3 -66 0 -92 -1 -57 -3z"/>
<path d="M3892 3620 c0 -14 2 -19 5 -12 2 6 2 18 0 25 -3 6 -5 1 -5 -13z"/>
<path d="M3613 3595 c0 -22 2 -30 4 -17 2 12 2 30 0 40 -3 9 -5 -1 -4 -23z"/>
<path d="M3282 3580 c0 -14 2 -19 5 -12 2 6 2 18 0 25 -3 6 -5 1 -5 -13z"/>
<path d="M3901 3574 c0 -11 3 -14 6 -6 3 7 2 16 -1 19 -3 4 -6 -2 -5 -13z"/>
<path d="M3911 3540 c-1 -35 20 -96 39 -112 l20 -17 -22 -45 c-12 -25 -25 -46
-29 -46 -4 0 -39 30 -78 66 -65 60 -71 70 -73 107 -1 40 -1 40 -5 8 -6 -44 7
-113 16 -90 5 13 38 -13 151 -119 80 -75 182 -170 228 -213 45 -42 82 -74 82
-70 0 4 -70 72 -155 151 -85 78 -155 144 -155 147 0 2 11 26 25 52 18 37 37
56 77 80 29 17 49 31 45 31 -5 0 -28 -11 -52 -26 -38 -22 -46 -23 -65 -12 -11
7 -23 24 -26 38 -13 55 -22 84 -23 70z"/>
<path d="M3292 3520 c0 -14 2 -19 5 -12 2 6 2 18 0 25 -3 6 -5 1 -5 -13z"/>
<path d="M3623 3495 c0 -27 2 -38 4 -22 2 15 2 37 0 50 -2 12 -4 0 -4 -28z"/>
<path d="M3302 3470 c0 -14 2 -19 5 -12 2 6 2 18 0 25 -3 6 -5 1 -5 -13z"/>
<path d="M4105 3450 c11 -5 27 -9 35 -9 9 0 8 4 -5 9 -11 5 -27 9 -35 9 -9 0
-8 -4 5 -9z"/>
<path d="M3312 3415 c0 -16 2 -22 5 -12 2 9 2 23 0 30 -3 6 -5 -1 -5 -18z"/>
<path d="M4209 3421 l54 -18 43 -94 c24 -52 43 -87 43 -79 0 8 -19 53 -42 99
-40 80 -44 85 -87 98 -65 19 -74 14 -11 -6z"/>
<path d="M2332 3213 c-57 -113 -101 -207 -99 -209 2 -2 50 89 106 202 56 114
100 208 98 210 -1 2 -49 -90 -105 -203z"/>
<path d="M3785 3370 c21 -77 59 -189 63 -186 4 5 -57 198 -65 206 -3 3 -2 -6
2 -20z"/>
<path d="M3322 3360 c0 -14 2 -19 5 -12 2 6 2 18 0 25 -3 6 -5 1 -5 -13z"/>
<path d="M3332 3310 c0 -14 2 -19 5 -12 2 6 2 18 0 25 -3 6 -5 1 -5 -13z"/>
<path d="M3623 3250 c0 -25 2 -35 4 -22 2 12 2 32 0 45 -2 12 -4 2 -4 -23z"/>
<path d="M3342 3255 c0 -16 2 -22 5 -12 2 9 2 23 0 30 -3 6 -5 -1 -5 -18z"/>
<path d="M2512 3260 c0 -8 6 -31 13 -50 7 -19 13 -28 13 -20 0 8 -6 31 -13 50
-7 19 -13 28 -13 20z"/>
<path d="M3352 3195 c0 -16 2 -22 5 -12 2 9 2 23 0 30 -3 6 -5 -1 -5 -18z"/>
<path d="M3613 3150 c0 -25 2 -35 4 -22 2 12 2 32 0 45 -2 12 -4 2 -4 -23z"/>
<path d="M4361 3170 c0 -8 4 -24 9 -35 5 -13 9 -14 9 -5 0 8 -4 24 -9 35 -5
13 -9 14 -9 5z"/>
<path d="M3362 3140 c0 -14 2 -19 5 -12 2 6 2 18 0 25 -3 6 -5 1 -5 -13z"/>
<path d="M3862 3130 c0 -8 8 -37 18 -65 10 -27 18 -43 18 -35 0 8 -8 38 -18
65 -10 28 -18 43 -18 35z"/>
<path d="M2823 3080 c0 -25 2 -35 4 -22 2 12 2 32 0 45 -2 12 -4 2 -4 -23z"/>
<path d="M2561 3106 c-2 -15 53 -190 56 -180 1 5 -10 50 -26 99 -16 50 -30 86
-30 81z"/>
<path d="M3372 3085 c0 -16 2 -22 5 -12 2 9 2 23 0 30 -3 6 -5 -1 -5 -18z"/>
<path d="M4381 3105 c0 -5 8 -37 19 -70 11 -33 17 -44 13 -25 -6 38 -31 111
-32 95z"/>
<path d="M3603 3055 c0 -22 2 -30 4 -17 2 12 2 30 0 40 -3 9 -5 -1 -4 -23z"/>
<path d="M3382 3030 c0 -14 2 -19 5 -12 2 6 2 18 0 25 -3 6 -5 1 -5 -13z"/>
<path d="M2813 2985 c0 -22 2 -30 4 -17 2 12 2 30 0 40 -3 9 -5 -1 -4 -23z"/>
<path d="M3392 2980 c0 -14 2 -19 5 -12 2 6 2 18 0 25 -3 6 -5 1 -5 -13z"/>
<path d="M3593 2960 c0 -25 2 -35 4 -22 2 12 2 32 0 45 -2 12 -4 2 -4 -23z"/>
<path d="M2208 2957 c-21 -40 -81 -227 -76 -232 2 -3 20 44 38 103 19 59 41
117 49 130 7 12 12 25 9 27 -2 2 -11 -10 -20 -28z"/>
<path d="M4243 2955 c0 -22 2 -30 4 -17 2 12 2 30 0 40 -3 9 -5 -1 -4 -23z"/>
<path d="M1503 2973 c15 -2 39 -2 55 0 15 2 2 4 -28 4 -30 0 -43 -2 -27 -4z"/>
<path d="M1638 2963 c17 -2 47 -2 65 0 17 2 3 4 -33 4 -36 0 -50 -2 -32 -4z"/>
<path d="M4421 2965 c0 -5 6 -32 14 -60 8 -27 13 -37 11 -22 -3 22 2 31 25 42
34 18 50 18 99 4 24 -8 41 -20 48 -38 11 -25 11 -25 5 -1 -7 34 -11 37 -65 51
-41 11 -52 11 -82 -4 -35 -16 -35 -16 -45 11 -5 15 -10 23 -10 17z"/>
<path d="M1808 2953 c17 -2 47 -2 65 0 17 2 3 4 -33 4 -36 0 -50 -2 -32 -4z"/>
<path d="M1273 2895 c0 -33 2 -45 4 -27 2 18 2 45 0 60 -2 15 -4 0 -4 -33z"/>
<path d="M1953 2943 c15 -2 39 -2 55 0 15 2 2 4 -28 4 -30 0 -43 -2 -27 -4z"/>
<path d="M3402 2925 c0 -16 2 -22 5 -12 2 9 2 23 0 30 -3 6 -5 -1 -5 -18z"/>
<path d="M2098 2933 c18 -2 45 -2 60 0 15 2 0 4 -33 4 -33 0 -45 -2 -27 -4z"/>
<path d="M2803 2880 c0 -30 2 -43 4 -27 2 15 2 39 0 55 -2 15 -4 2 -4 -28z"/>
<path d="M4253 2860 c0 -25 2 -35 4 -22 2 12 2 32 0 45 -2 12 -4 2 -4 -23z"/>
<path d="M3412 2865 c0 -16 2 -22 5 -12 2 9 2 23 0 30 -3 6 -5 -1 -5 -18z"/>
<path d="M3583 2855 c0 -22 2 -30 4 -17 2 12 2 30 0 40 -3 9 -5 -1 -4 -23z"/>
<path d="M4630 2855 c0 -12 62 -165 67 -165 3 0 3 7 -1 15 -3 8 -1 15 4 15 6
0 2 8 -9 19 -10 10 -26 42 -36 70 -14 44 -25 63 -25 46z"/>
<path d="M4451 2834 c0 -11 3 -14 6 -6 3 7 2 16 -1 19 -3 4 -6 -2 -5 -13z"/>
<path d="M3421 2814 c0 -11 3 -14 6 -6 3 7 2 16 -1 19 -3 4 -6 -2 -5 -13z"/>
<path d="M1088 2813 c6 -2 18 -2 25 0 6 3 1 5 -13 5 -14 0 -19 -2 -12 -5z"/>
<path d="M1033 2803 c9 -2 23 -2 30 0 6 3 -1 5 -18 5 -16 0 -22 -2 -12 -5z"/>
<path d="M2793 2775 c0 -22 2 -30 4 -17 2 12 2 30 0 40 -3 9 -5 -1 -4 -23z"/>
<path d="M4462 2790 c0 -14 2 -19 5 -12 2 6 2 18 0 25 -3 6 -5 1 -5 -13z"/>
<path d="M990 2780 c0 -11 2 -20 4 -20 2 0 6 9 9 20 3 11 1 20 -4 20 -5 0 -9
-9 -9 -20z"/>
<path d="M1283 2730 c0 -41 2 -58 4 -37 2 20 2 54 0 75 -2 20 -4 3 -4 -38z"/>
<path d="M3573 2760 c0 -25 2 -35 4 -22 2 12 2 32 0 45 -2 12 -4 2 -4 -23z"/>
<path d="M4263 2755 c0 -22 2 -30 4 -17 2 12 2 30 0 40 -3 9 -5 -1 -4 -23z"/>
<path d="M3432 2760 c0 -14 2 -19 5 -12 2 6 2 18 0 25 -3 6 -5 1 -5 -13z"/>
<path d="M4471 2744 c0 -11 3 -14 6 -6 3 7 2 16 -1 19 -3 4 -6 -2 -5 -13z"/>
<path d="M983 2710 c0 -25 2 -35 4 -22 2 12 2 32 0 45 -2 12 -4 2 -4 -23z"/>
<path d="M3442 2705 c0 -16 2 -22 5 -12 2 9 2 23 0 30 -3 6 -5 -1 -5 -18z"/>
<path d="M4481 2704 c0 -11 3 -14 6 -6 3 7 2 16 -1 19 -3 4 -6 -2 -5 -13z"/>
<path d="M4740 2710 c34 -11 60 -11 35 0 -11 5 -29 8 -40 8 -16 0 -15 -2 5 -8z"/>
<path d="M2106 2652 c-13 -42 -25 -62 -38 -65 -14 -4 -13 -4 3 -3 17 1 26 13
41 56 10 30 17 58 15 64 -2 5 -11 -19 -21 -52z"/>
<path d="M3563 2665 c0 -27 2 -38 4 -22 2 15 2 37 0 50 -2 12 -4 0 -4 -28z"/>
<path d="M4272 2670 c0 -19 2 -27 5 -17 2 9 2 25 0 35 -3 9 -5 1 -5 -18z"/>
<path d="M4808 2693 c7 -3 16 -2 19 1 4 3 -2 6 -13 5 -11 0 -14 -3 -6 -6z"/>
<path d="M4848 2683 c7 -3 16 -2 19 1 4 3 -2 6 -13 5 -11 0 -14 -3 -6 -6z"/>
<path d="M4492 2665 c0 -24 35 -166 36 -145 1 8 -7 49 -17 90 -11 41 -19 66
-19 55z"/>
<path d="M4702 2670 c18 -48 192 -429 195 -426 4 4 -184 427 -194 435 -3 4 -4
-1 -1 -9z"/>
<path d="M4888 2653 c5 -21 7 -23 10 -9 2 10 0 22 -6 28 -6 6 -7 0 -4 -19z"/>
<path d="M3452 2650 c0 -14 2 -19 5 -12 2 6 2 18 0 25 -3 6 -5 1 -5 -13z"/>
<path d="M972 2620 c0 -19 2 -27 5 -17 2 9 2 25 0 35 -3 9 -5 1 -5 -18z"/>
<path d="M1293 2560 c0 -36 2 -50 4 -32 2 17 2 47 0 65 -2 17 -4 3 -4 -33z"/>
<path d="M3462 2595 c0 -16 2 -22 5 -12 2 9 2 23 0 30 -3 6 -5 -1 -5 -18z"/>
<path d="M4902 2600 c0 -14 4 -38 8 -55 7 -27 8 -27 8 -5 0 14 -4 39 -8 55 -7
27 -8 27 -8 5z"/>
<path d="M2716 2510 c-20 -56 -36 -109 -36 -118 0 -9 18 35 40 97 22 63 38
116 36 118 -2 2 -20 -42 -40 -97z"/>
<path d="M4283 2540 c0 -41 2 -58 4 -37 2 20 2 54 0 75 -2 20 -4 3 -4 -38z"/>
<path d="M3553 2560 c0 -25 2 -35 4 -22 2 12 2 32 0 45 -2 12 -4 2 -4 -23z"/>
<path d="M962 2550 c0 -19 2 -27 5 -17 2 9 2 25 0 35 -3 9 -5 1 -5 -18z"/>
<path d="M1988 2573 c12 -2 30 -2 40 0 9 3 -1 5 -23 4 -22 0 -30 -2 -17 -4z"/>
<path d="M1893 2563 c15 -2 37 -2 50 0 12 2 0 4 -28 4 -27 0 -38 -2 -22 -4z"/>
<path d="M3471 2545 c0 -11 6 -47 13 -80 8 -33 14 -51 15 -40 0 11 -6 47 -13
80 -8 33 -14 51 -15 40z"/>
<path d="M1830 2527 c0 -13 113 -317 116 -314 4 4 -104 308 -112 316 -2 2 -4
2 -4 -2z"/>
<path d="M953 2470 c0 -25 2 -35 4 -22 2 12 2 32 0 45 -2 12 -4 2 -4 -23z"/>
<path d="M4922 2485 c0 -16 2 -22 5 -12 2 9 2 23 0 30 -3 6 -5 -1 -5 -18z"/>
<path d="M3543 2465 c0 -22 2 -30 4 -17 2 12 2 30 0 40 -3 9 -5 -1 -4 -23z"/>
<path d="M4531 2490 c0 -8 6 -37 13 -65 8 -27 15 -43 15 -35 0 8 -6 38 -13 65
-8 28 -15 43 -15 35z"/>
<path d="M1302 2433 l-2 -43 -97 -2 -98 -2 90 -5 90 -6 -248 -188 c-136 -103
-252 -185 -257 -182 -6 3 -10 0 -10 -8 0 -11 -205 -159 -243 -175 -4 -2 -5 9
-2 25 4 19 0 14 -12 -14 -10 -24 -57 -90 -106 -147 -48 -58 -87 -109 -87 -114
0 -15 300 -276 373 -324 40 -26 77 -47 82 -48 7 0 9 133 7 385 l-2 386 27 25
c16 15 135 107 265 205 l237 178 128 4 128 3 -127 2 -127 2 -4 43 -4 42 -1
-42z m-532 -843 l0 -380 -74 48 c-62 39 -355 291 -364 312 -1 4 39 57 90 119
81 96 109 122 217 196 69 47 126 85 128 85 2 0 3 -171 3 -380z"/>
<path d="M4272 2425 c0 -16 2 -22 5 -12 2 9 2 23 0 30 -3 6 -5 -1 -5 -18z"/>
<path d="M4932 2435 c0 -11 4 -33 8 -50 7 -27 8 -27 8 -5 0 14 -4 36 -8 50 -6
20 -8 21 -8 5z"/>
<path d="M718 2413 c-27 -14 -48 -31 -48 -36 0 -6 8 -3 18 5 16 15 76 48 85
48 8 0 55 -76 60 -96 4 -15 5 -15 6 -2 1 10 19 23 46 34 25 9 44 19 41 21 -2
2 -22 -4 -45 -13 -23 -9 -43 -15 -45 -13 -1 2 -15 21 -30 42 -16 20 -31 37
-35 37 -3 0 -27 -12 -53 -27z"/>
<path d="M940 2408 c0 -15 8 -18 53 -16 l52 1 -45 4 c-24 3 -48 10 -52 16 -5
8 -8 6 -8 -5z"/>
<path d="M3533 2370 c0 -25 2 -35 4 -22 2 12 2 32 0 45 -2 12 -4 2 -4 -23z"/>
<path d="M3502 2375 c0 -16 2 -22 5 -12 2 9 2 23 0 30 -3 6 -5 -1 -5 -18z"/>
<path d="M4262 2350 c0 -19 2 -27 5 -17 2 9 2 25 0 35 -3 9 -5 1 -5 -18z"/>
<path d="M2672 2345 c0 -16 2 -22 5 -12 2 9 2 23 0 30 -3 6 -5 -1 -5 -18z"/>
<path d="M4562 2350 c0 -14 2 -19 5 -12 2 6 2 18 0 25 -3 6 -5 1 -5 -13z"/>
<path d="M636 2274 c-15 -47 -25 -88 -23 -90 2 -2 16 35 30 83 15 47 26 88 23
90 -2 2 -16 -35 -30 -83z"/>
<path d="M4950 2339 c0 -8 25 -71 55 -139 30 -68 56 -137 56 -154 l2 -31 4 28
c4 23 17 34 79 65 l74 36 71 -69 c61 -60 79 -86 126 -184 29 -63 52 -118 51
-122 -5 -14 -230 -249 -239 -249 -4 0 -11 9 -14 21 -4 11 -9 18 -12 16 -2 -3
0 -14 6 -25 9 -18 7 -22 -17 -31 -25 -10 -25 -11 -2 -6 14 2 45 5 70 6 42 2
43 2 12 8 l-33 6 123 122 123 123 130 -75 c72 -41 140 -86 153 -100 12 -14 22
-21 22 -16 0 21 -36 46 -171 124 l-135 77 -57 123 c-53 113 -63 127 -133 191
l-76 69 -74 -36 c-72 -36 -74 -36 -84 -17 -14 27 -79 176 -96 220 -7 19 -13
28 -14 19z"/>
<path d="M4571 2304 c0 -11 3 -14 6 -6 3 7 2 16 -1 19 -3 4 -6 -2 -5 -13z"/>
<path d="M822 2285 c0 -16 2 -22 5 -12 2 9 2 23 0 30 -3 6 -5 -1 -5 -18z"/>
<path d="M2662 2285 c0 -16 2 -22 5 -12 2 9 2 23 0 30 -3 6 -5 -1 -5 -18z"/>
<path d="M4253 2275 c0 -22 2 -30 4 -17 2 12 2 30 0 40 -3 9 -5 -1 -4 -23z"/>
<path d="M4582 2265 c0 -11 4 -31 8 -45 6 -20 8 -21 8 -5 0 11 -4 31 -8 45 -6
20 -8 21 -8 5z"/>
<path d="M812 2225 c0 -16 2 -22 5 -12 2 9 2 23 0 30 -3 6 -5 -1 -5 -18z"/>
<path d="M2652 2225 c0 -16 2 -22 5 -12 2 9 2 23 0 30 -3 6 -5 -1 -5 -18z"/>
<path d="M4900 2229 c0 -9 127 -289 134 -297 10 -10 -4 25 -68 167 -51 114
-66 143 -66 130z"/>
<path d="M4242 2195 c0 -16 2 -22 5 -12 2 9 2 23 0 30 -3 6 -5 -1 -5 -18z"/>
<path d="M802 2160 c0 -19 2 -27 5 -17 2 9 2 25 0 35 -3 9 -5 1 -5 -18z"/>
<path d="M4585 2179 c-18 -7 -18 -8 -1 -8 20 -1 431 -252 457 -279 9 -9 47
-86 84 -169 38 -84 70 -151 72 -149 2 2 -28 73 -67 158 -59 132 -70 164 -71
214 -2 53 -2 55 -8 20 -3 -22 -11 -41 -17 -43 -10 -3 -414 241 -424 257 -3 4
-14 4 -25 -1z"/>
<path d="M4448 2163 c18 -2 45 -2 60 0 15 2 0 4 -33 4 -33 0 -45 -2 -27 -4z"/>
<path d="M4313 2153 c15 -2 39 -2 55 0 15 2 2 4 -28 4 -30 0 -43 -2 -27 -4z"/>
<path d="M581 2094 c-7 -25 -10 -48 -8 -51 3 -2 10 17 16 43 7 25 10 48 8 51
-3 2 -10 -17 -16 -43z"/>
<path d="M4100 2014 c-127 -128 -124 -125 -775 -603 -170 -125 -180 -131 -186
-109 l-7 23 -1 -25 c-1 -14 -60 -162 -131 -329 -72 -167 -129 -306 -127 -307
2 -2 59 125 126 284 68 158 126 290 130 294 4 4 34 -16 67 -45 33 -28 163
-139 289 -246 l228 -195 -64 -22 c-35 -12 -59 -23 -53 -23 6 -1 37 8 68 19
l58 20 126 -90 c97 -69 134 -90 157 -88 l30 1 -27 4 c-26 4 -28 8 -30 51 l-1
47 -6 -43 -6 -43 -115 81 c-63 45 -115 87 -114 93 1 7 4 23 7 37 6 22 5 22 -5
-2 -7 -16 -15 -28 -19 -28 -8 0 -573 479 -576 489 -2 5 173 136 679 505 144
104 200 153 294 252 64 68 114 124 112 124 -2 0 -59 -57 -128 -126z"/>
<path d="M792 2100 c0 -14 2 -19 5 -12 2 6 2 18 0 25 -3 6 -5 1 -5 -13z"/>
<path d="M1423 2113 c9 -2 23 -2 30 0 6 3 -1 5 -18 5 -16 0 -22 -2 -12 -5z"/>
<path d="M1954 1935 c0 -104 2 -146 3 -92 2 54 2 139 0 190 -1 51 -3 7 -3 -98z"/>
<path d="M1340 2100 c-20 -6 -21 -8 -5 -8 11 0 31 4 45 8 20 6 21 8 5 8 -11 0
-31 -4 -45 -8z"/>
<path d="M1273 2083 c9 -2 23 -2 30 0 6 3 -1 5 -18 5 -16 0 -22 -2 -12 -5z"/>
<path d="M1218 2073 c6 -2 18 -2 25 0 6 3 1 5 -13 5 -14 0 -19 -2 -12 -5z"/>
<path d="M782 2045 c0 -16 2 -22 5 -12 2 9 2 23 0 30 -3 6 -5 -1 -5 -18z"/>
<path d="M1178 2063 c7 -3 16 -2 19 1 4 3 -2 6 -13 5 -11 0 -14 -3 -6 -6z"/>
<path d="M1493 2030 c0 -25 2 -35 4 -22 2 12 2 32 0 45 -2 12 -4 2 -4 -23z"/>
<path d="M1123 2053 c9 -2 23 -2 30 0 6 3 -1 5 -18 5 -16 0 -22 -2 -12 -5z"/>
<path d="M1040 2040 c-20 -6 -21 -8 -5 -8 11 0 31 4 45 8 20 6 21 8 5 8 -11 0
-31 -4 -45 -8z"/>
<path d="M4272 2030 c0 -8 6 -31 13 -50 7 -19 13 -28 13 -20 0 8 -6 31 -13 50
-7 19 -13 28 -13 20z"/>
<path d="M561 2014 c0 -11 3 -14 6 -6 3 7 2 16 -1 19 -3 4 -6 -2 -5 -13z"/>
<path d="M935 2020 c-27 -7 -27 -8 -5 -8 14 0 39 4 55 8 27 7 27 8 5 8 -14 0
-38 -4 -55 -8z"/>
<path d="M878 2003 c7 -3 16 -2 19 1 4 3 -2 6 -13 5 -11 0 -14 -3 -6 -6z"/>
<path d="M828 1993 c6 -2 18 -2 25 0 6 3 1 5 -13 5 -14 0 -19 -2 -12 -5z"/>
<path d="M551 1974 c0 -11 3 -14 6 -6 3 7 2 16 -1 19 -3 4 -6 -2 -5 -13z"/>
<path d="M1483 1925 c0 -27 2 -38 4 -22 2 15 2 37 0 50 -2 12 -4 0 -4 -28z"/>
<path d="M535 1920 c-4 -17 -5 -34 -2 -36 2 -3 7 10 11 27 8 42 0 50 -9 9z"/>
<path d="M4311 1900 c0 -8 4 -24 9 -35 5 -13 9 -14 9 -5 0 8 -4 24 -9 35 -5
13 -9 14 -9 5z"/>
<path d="M3966 1824 c-4 -20 -5 -38 -3 -40 3 -3 8 11 11 32 4 20 5 38 3 40 -3
3 -8 -11 -11 -32z"/>
<path d="M4342 1800 c0 -8 6 -31 13 -50 7 -19 13 -28 13 -20 0 8 -6 31 -13 50
-7 19 -13 28 -13 20z"/>
<path d="M3952 1745 c0 -16 2 -22 5 -12 2 9 2 23 0 30 -3 6 -5 -1 -5 -18z"/>
<path d="M3936 1674 c-4 -20 -5 -38 -3 -40 3 -3 8 11 11 32 4 20 5 38 3 40 -3
3 -8 -11 -11 -32z"/>
<path d="M4371 1707 c-2 -14 63 -220 66 -211 2 5 -12 56 -31 114 -19 58 -34
101 -35 97z"/>
<path d="M3201 1664 c0 -11 3 -14 6 -6 3 7 2 16 -1 19 -3 4 -6 -2 -5 -13z"/>
<path d="M1944 1525 c0 -82 2 -115 3 -72 2 43 2 110 0 150 -1 40 -3 5 -3 -78z"/>
<path d="M3192 1615 c0 -16 2 -22 5 -12 2 9 2 23 0 30 -3 6 -5 -1 -5 -18z"/>
<path d="M3920 1446 l0 -175 -40 -102 c-22 -56 -38 -104 -36 -106 2 -3 19 35
37 84 31 81 34 86 40 58 4 -16 7 70 8 193 0 122 -1 222 -4 222 -3 0 -5 -78 -5
-174z"/>
<path d="M3182 1560 c0 -14 2 -19 5 -12 2 6 2 18 0 25 -3 6 -5 1 -5 -13z"/>
<path d="M5790 1545 c0 -3 9 -24 20 -45 12 -23 16 -40 10 -40 -6 0 -9 -4 -5
-10 6 -10 -219 -309 -263 -349 -15 -14 -19 -22 -10 -20 12 3 298 362 298 374
0 8 -42 95 -45 95 -3 0 -5 -2 -5 -5z"/>
<path d="M3172 1510 c0 -14 2 -19 5 -12 2 6 2 18 0 25 -3 6 -5 1 -5 -13z"/>
<path d="M5353 1493 c15 -2 37 -2 50 0 12 2 0 4 -28 4 -27 0 -38 -2 -22 -4z"/>
<path d="M5138 1483 c7 -3 16 -2 19 1 4 3 -2 6 -13 5 -11 0 -14 -3 -6 -6z"/>
<path d="M5458 1483 c12 -2 32 -2 45 0 12 2 2 4 -23 4 -25 0 -35 -2 -22 -4z"/>
<path d="M3162 1455 c0 -16 2 -22 5 -12 2 9 2 23 0 30 -3 6 -5 -1 -5 -18z"/>
<path d="M4442 1470 c0 -8 6 -31 13 -50 7 -19 13 -28 13 -20 0 8 -6 31 -13 50
-7 19 -13 28 -13 20z"/>
<path d="M5098 1473 c7 -3 16 -2 19 1 4 3 -2 6 -13 5 -11 0 -14 -3 -6 -6z"/>
<path d="M5578 1473 c18 -2 45 -2 60 0 15 2 0 4 -33 4 -33 0 -45 -2 -27 -4z"/>
<path d="M5035 1460 c-13 -5 -14 -9 -5 -9 8 0 24 4 35 9 13 5 14 9 5 9 -8 0
-24 -4 -35 -9z"/>
<path d="M5723 1463 c15 -2 37 -2 50 0 12 2 0 4 -28 4 -27 0 -38 -2 -22 -4z"/>
<path d="M4988 1443 c7 -3 16 -2 19 1 4 3 -2 6 -13 5 -11 0 -14 -3 -6 -6z"/>
<path d="M4925 1430 c-13 -5 -14 -9 -5 -9 8 0 24 4 35 9 13 5 14 9 5 9 -8 0
-24 -4 -35 -9z"/>
<path d="M3152 1400 c0 -14 2 -19 5 -12 2 6 2 18 0 25 -3 6 -5 1 -5 -13z"/>
<path d="M4878 1413 c7 -3 16 -2 19 1 4 3 -2 6 -13 5 -11 0 -14 -3 -6 -6z"/>
<path d="M4838 1403 c7 -3 16 -2 19 1 4 3 -2 6 -13 5 -11 0 -14 -3 -6 -6z"/>
<path d="M4682 1368 c-62 -17 -110 -33 -108 -35 4 -4 238 56 245 63 9 9 -30 1
-137 -28z"/>
<path d="M4471 1374 c-1 -6 4 -24 10 -40 8 -24 29 -38 116 -79 139 -66 152
-68 28 -4 -55 28 -101 55 -103 60 -2 5 -9 9 -16 9 -7 0 -18 15 -24 33 -5 17
-10 27 -11 21z"/>
<path d="M3142 1350 c0 -14 2 -19 5 -12 2 6 2 18 0 25 -3 6 -5 1 -5 -13z"/>
<path d="M4538 1323 c7 -3 16 -2 19 1 4 3 -2 6 -13 5 -11 0 -14 -3 -6 -6z"/>
<path d="M4481 1274 c0 -11 3 -14 6 -6 3 7 2 16 -1 19 -3 4 -6 -2 -5 -13z"/>
<path d="M1132 1233 c-35 -8 -62 -17 -59 -19 4 -5 139 25 146 32 7 7 -21 3
-87 -13z"/>
<path d="M4472 1225 c0 -16 2 -22 5 -12 2 9 2 23 0 30 -3 6 -5 -1 -5 -18z"/>
<path d="M4846 1137 l121 -62 -67 -108 -67 -109 -232 -119 c-214 -111 -231
-118 -232 -97 -1 22 -1 22 -8 -2 -5 -20 -15 -26 -46 -31 l-40 -6 39 -2 c31 -1
84 23 281 124 l243 126 69 110 c56 91 72 109 88 105 11 -2 31 -7 45 -11 14 -3
-6 7 -45 23 -38 16 -112 50 -162 75 -51 26 -96 47 -100 46 -5 0 46 -28 113
-62z"/>
<path d="M4456 1149 c-4 -23 -5 -44 -2 -46 2 -2 7 14 11 37 4 23 5 43 2 46 -2
3 -7 -14 -11 -37z"/>
<path d="M1023 1130 c0 -30 2 -43 4 -27 2 15 2 39 0 55 -2 15 -4 2 -4 -28z"/>
<path d="M2602 1140 c0 -14 2 -19 5 -12 2 6 2 18 0 25 -3 6 -5 1 -5 -13z"/>
<path d="M3933 1115 c0 -27 2 -38 4 -22 2 15 2 37 0 50 -2 12 -4 0 -4 -28z"/>
<path d="M2592 1085 c0 -16 2 -22 5 -12 2 9 2 23 0 30 -3 6 -5 -1 -5 -18z"/>
<path d="M4442 1065 c0 -16 2 -22 5 -12 2 9 2 23 0 30 -3 6 -5 -1 -5 -18z"/>
<path d="M5483 1073 c9 -2 23 -2 30 0 6 3 -1 5 -18 5 -16 0 -22 -2 -12 -5z"/>
<path d="M5428 1063 c6 -2 18 -2 25 0 6 3 1 5 -13 5 -14 0 -19 -2 -12 -5z"/>
<path d="M1030 1053 c0 -12 103 -130 137 -156 13 -10 29 -16 36 -14 8 4 7 6
-3 6 -16 1 -108 92 -148 145 -12 16 -22 24 -22 19z"/>
<path d="M5378 1053 c6 -2 18 -2 25 0 6 3 1 5 -13 5 -14 0 -19 -2 -12 -5z"/>
<path d="M2582 1020 c0 -19 2 -27 5 -17 2 9 2 25 0 35 -3 9 -5 1 -5 -18z"/>
<path d="M3801 969 c-17 -45 -30 -83 -28 -85 2 -2 18 33 36 77 17 45 30 83 28
85 -2 2 -18 -33 -36 -77z"/>
<path d="M5099 1034 c18 -8 47 -17 65 -20 17 -2 4 4 -29 16 -70 23 -84 25 -36
4z"/>
<path d="M5250 1035 c-74 -17 -32 -17 50 0 36 7 52 13 35 13 -16 0 -55 -6 -85
-13z"/>
<path d="M3943 995 c0 -27 2 -38 4 -22 2 15 2 37 0 50 -2 12 -4 0 -4 -28z"/>
<path d="M4426 989 c-4 -23 -5 -44 -2 -46 2 -2 7 14 11 37 4 23 5 43 2 46 -2
3 -7 -14 -11 -37z"/>
<path d="M2572 960 c0 -14 2 -19 5 -12 2 6 2 18 0 25 -3 6 -5 1 -5 -13z"/>
<path d="M2562 905 c0 -16 2 -22 5 -12 2 9 2 23 0 30 -3 6 -5 -1 -5 -18z"/>
<path d="M3953 870 c0 -36 2 -50 4 -32 2 17 2 47 0 65 -2 17 -4 3 -4 -33z"/>
<path d="M4412 905 c0 -16 2 -22 5 -12 2 9 2 23 0 30 -3 6 -5 -1 -5 -18z"/>
<path d="M1233 873 c9 -2 23 -2 30 0 6 3 -1 5 -18 5 -16 0 -22 -2 -12 -5z"/>
<path d="M1298 863 c12 -2 30 -2 40 0 9 3 -1 5 -23 4 -22 0 -30 -2 -17 -4z"/>
<path d="M2552 845 c0 -16 2 -22 5 -12 2 9 2 23 0 30 -3 6 -5 -1 -5 -18z"/>
<path d="M3756 855 c-9 -26 -7 -32 5 -12 6 10 9 21 6 23 -2 3 -7 -2 -11 -11z"/>
<path d="M4396 829 c-4 -23 -5 -44 -2 -46 2 -2 7 14 11 37 4 23 5 43 2 46 -2
3 -7 -14 -11 -37z"/>
<path d="M1383 853 c9 -2 23 -2 30 0 6 3 -1 5 -18 5 -16 0 -22 -2 -12 -5z"/>
<path d="M1453 843 c9 -2 25 -2 35 0 9 3 1 5 -18 5 -19 0 -27 -2 -17 -5z"/>
<path d="M2542 785 c0 -16 2 -22 5 -12 2 9 2 23 0 30 -3 6 -5 -1 -5 -18z"/>
<path d="M3963 735 c0 -27 2 -38 4 -22 2 15 2 37 0 50 -2 12 -4 0 -4 -28z"/>
<path d="M4382 750 c0 -14 2 -19 5 -12 2 6 2 18 0 25 -3 6 -5 1 -5 -13z"/>
<path d="M2530 741 c0 -21 -81 -122 -105 -131 -15 -7 -16 -9 -3 -9 12 -1 104
94 113 116 1 2 25 -7 54 -18 30 -11 55 -18 58 -15 2 2 -18 12 -46 21 -28 9
-55 24 -61 33 -7 13 -9 13 -10 3z"/>
<path d="M4372 695 c0 -16 2 -22 5 -12 2 9 2 23 0 30 -3 6 -5 -1 -5 -18z"/>
<path d="M3465 675 c-39 -17 -21 -18 25 0 19 7 28 14 20 14 -8 0 -28 -6 -45
-14z"/>
<path d="M2660 676 c0 -2 47 -20 104 -40 79 -29 115 -36 152 -33 l49 3 -53 2
c-50 2 -53 3 -47 25 7 21 6 21 -7 3 -15 -18 -17 -18 -102 12 -89 33 -96 35
-96 28z"/>
<path d="M3320 628 c-47 -16 -110 -33 -140 -38 -51 -7 -52 -7 -15 -9 24 0 88
15 155 38 63 22 108 39 100 39 -8 0 -53 -13 -100 -30z"/>
<path d="M1890 627 c8 -8 250 -80 255 -75 3 2 -46 19 -108 37 -140 42 -153 45
-147 38z"/>
<path d="M2368 593 c6 -2 18 -2 25 0 6 3 1 5 -13 5 -14 0 -19 -2 -12 -5z"/>
<path d="M3008 593 c17 -2 47 -2 65 0 17 2 3 4 -33 4 -36 0 -50 -2 -32 -4z"/>
<path d="M4183 593 c15 -2 39 -2 55 0 15 2 2 4 -28 4 -30 0 -43 -2 -27 -4z"/>
<path d="M2318 583 c6 -2 18 -2 25 0 6 3 1 5 -13 5 -14 0 -19 -2 -12 -5z"/>
<path d="M4068 583 c12 -2 32 -2 45 0 12 2 2 4 -23 4 -25 0 -35 -2 -22 -4z"/>
<path d="M2235 570 c-27 -7 -27 -8 -5 -8 14 0 36 4 50 8 20 6 21 8 5 8 -11 0
-33 -4 -50 -8z"/>
<path d="M2168 553 c6 -2 18 -2 25 0 6 3 1 5 -13 5 -14 0 -19 -2 -12 -5z"/>
</g>
</svg>
